<svg xmlns="http://www.w3.org/2000/svg" width="24" height="24" fill="none" viewBox="0 0 24 24">
  <circle cx="12" cy="12" r="3.5" stroke="currentColor" stroke-width="2"/>
  <path stroke="currentColor" stroke-width="2" d="M6.79627 5.90767C6.97761 5.94681 7.16701 5.91735 7.32789 5.82499L8.98294 4.87487C9.14495 4.78187 9.26642 4.63175 9.32357 4.4539L9.77763 3.04105C9.97701 2.42069 10.5541 2 11.2057 2H12.7943C13.4459 2 14.0229 2.42063 14.2223 3.04092L14.6766 4.45409C14.7338 4.63191 14.8553 4.782 15.0173 4.87499L16.6722 5.82507C16.8331 5.91743 17.0225 5.94689 17.2039 5.90776L18.648 5.59609C19.2849 5.45863 19.9377 5.74806 20.2635 6.31233L21.0578 7.68812C21.3836 8.25243 21.3078 8.96254 20.8702 9.44539L19.9085 10.5066C19.7835 10.6446 19.7143 10.8241 19.7143 11.0102V12.9902C19.7143 13.1764 19.7835 13.3558 19.9085 13.4938L20.8702 14.5552C21.3076 15.038 21.3834 15.7481 21.0576 16.3123L20.2633 17.6881C19.9375 18.2524 19.2846 18.5419 18.6477 18.4043L17.2035 18.0925C17.0221 18.0534 16.8327 18.0828 16.6718 18.1752L15.0173 19.125C14.8553 19.218 14.7338 19.3681 14.6766 19.5459L14.2223 20.9591C14.0229 21.5794 13.4459 22 12.7943 22H11.2057C10.5541 22 9.97701 21.5793 9.77763 20.9589L9.32357 19.5461C9.26642 19.3682 9.14495 19.2181 8.98294 19.1251L7.32837 18.1753C7.16747 18.0829 6.97804 18.0535 6.79669 18.0926L5.3529 18.4043C4.71596 18.5419 4.0631 18.2524 3.73729 17.6881L2.94298 16.3123C2.6172 15.7481 2.69295 15.038 3.13043 14.5552L4.0915 13.4945C4.21649 13.3565 4.28571 13.177 4.28571 12.9909V11.0097C4.28571 10.8235 4.21647 10.644 4.09146 10.506L3.13029 9.44539C2.69272 8.96254 2.61694 8.25244 2.94274 7.68812L3.73705 6.31233C4.06284 5.74806 4.71563 5.45863 5.35253 5.59609L6.79627 5.90767Z"/>
</svg>
